<?xml version="1.0" encoding="UTF-8"?>
<svg version="1.1" xmlns="http://www.w3.org/2000/svg" width="554" height="194">
<path d="M0 0 C2.61485109 1.96888111 4.97691231 4.06576038 7.37109375 6.30078125 C8.01224121 6.89568359 8.65338867 7.49058594 9.31396484 8.10351562 C24.66658146 22.48207822 38.2843859 39.36958107 39.5480957 61.38427734 C40.08312288 91.41827301 40.08312288 91.41827301 35.37109375 103.30078125 C34.93539062 104.491875 34.4996875 105.68296875 34.05078125 106.91015625 C30.89055945 114.95749702 26.82150562 121.61494269 21.37109375 128.30078125 C20.76652344 129.0690625 20.16195312 129.83734375 19.5390625 130.62890625 C5.73358697 147.25360521 -14.47391289 157.14492864 -35.62890625 160.30078125 C-63.71007308 162.07713985 -87.02221713 156.74657278 -108.62890625 138.11328125 C-125.36932501 122.56490469 -136.9542686 101.62365724 -137.84765625 78.51171875 C-138.48851504 52.32805966 -131.34543178 30.14189068 -113.16015625 10.7421875 C-82.91872707 -18.42585762 -35.16040406 -22.72626414 0 0 Z " fill="#F9F9F8" transform="translate(145.62890625,26.69921875)"/>
<path d="M0 0 C19.3430682 0 34.41798285 1.30187153 48.9375 14.375 C54.57792184 20.13496836 60 28.86122741 60 37 C54.06 36.67 48.12 36.34 42 36 C40.68 33.36 39.36 30.72 38 28 C32.32284466 21.02520916 25.72080091 18.2458287 17 17 C17 41.42 17 65.84 17 91 C6 90 6 90 3.23046875 87.39453125 C2.51177013 86.22283164 1.83271014 85.02621807 1.1875 83.8125 C0.36767015 82.4411176 -0.45267433 81.07004277 -1.2734375 79.69921875 C-1.70495117 78.94817871 -2.13646484 78.19713867 -2.58105469 77.42333984 C-5.22730936 72.90394483 -8.10722933 68.53049093 -10.9375 64.125 C-12.1274238 62.25071167 -13.31623127 60.37571414 -14.50390625 58.5 C-19.28398873 50.96630392 -24.14140992 43.48317864 -29 36 C-29.09968046 41.22862331 -29.17184747 46.45668044 -29.21972656 51.68603516 C-29.23970839 53.46087289 -29.26690355 55.23564594 -29.30175781 57.01025391 C-29.53669041 69.28893712 -29.58655531 79.97823868 -20.6953125 89.47265625 C-12.65704782 96.714503 -3.70083266 99.52084157 6.9375 99.375 C7.77990234 99.38660156 8.62230469 99.39820313 9.49023438 99.41015625 C19.92121856 99.36197618 28.99213099 95.82442263 36.53515625 88.51171875 C40.85282616 83.19055369 42.19534288 76.48339782 44 70 C49.61 70 55.22 70 61 70 C61.76363171 82.02719944 56.06220668 91.99781071 48.26171875 101.0078125 C36.77751348 111.97559741 20.81400966 116.5277476 5.28686523 116.34960938 C-10.36949794 115.83001262 -23.37655024 109.43736874 -34.625 98.59765625 C-45.45779728 86.74928422 -47.61212977 72.9608341 -47.390625 57.515625 C-47.38314526 55.96336605 -47.37746055 54.41109753 -47.37347412 52.85882568 C-47.35835375 48.81450361 -47.31919355 44.77077537 -47.2746582 40.72668457 C-47.23340807 36.58349638 -47.21540025 32.44021027 -47.1953125 28.296875 C-47.15268249 20.1976471 -47.08460132 12.09889785 -47 4 C-45.10424749 3.97278824 -43.20838021 3.95350864 -41.3125 3.9375 C-40.25675781 3.92589844 -39.20101562 3.91429687 -38.11328125 3.90234375 C-35.22203064 3.99303543 -32.76338844 4.14889674 -30 5 C-28.16505428 7.48347762 -26.68361086 9.82134476 -25.1875 12.5 C-24.23755617 14.12816229 -23.28421966 15.75434824 -22.328125 17.37890625 C-21.80669922 18.26980957 -21.28527344 19.16071289 -20.74804688 20.07861328 C-17.43769741 25.61096547 -13.9268976 31.01712231 -10.4375 36.4375 C-9.73455811 37.53320312 -9.03161621 38.62890625 -8.30737305 39.7578125 C-4.68598524 45.40000431 -4.68598524 45.40000431 -1 51 C-0.67 34.17 -0.34 17.34 0 0 Z " fill="#45562E" transform="translate(96,45)"/>
<path d="M0 0 C11 0 11 0 13.54296875 1.984375 C14.08566406 2.89703125 14.62835938 3.8096875 15.1875 4.75 C15.8165625 5.7503125 16.445625 6.750625 17.09375 7.78125 C17.7228125 8.8434375 18.351875 9.905625 19 11 C20.386251 13.08972166 21.78198121 15.17318865 23.1875 17.25 C24.10595703 18.64992188 24.10595703 18.64992188 25.04296875 20.078125 C27.29361756 23.43837511 29.63660039 26.71818086 32 30 C32.03758423 28.90328979 32.03758423 28.90328979 32.07592773 27.78442383 C32.19222641 24.46028583 32.31479928 21.13640759 32.4375 17.8125 C32.47681641 16.66201172 32.51613281 15.51152344 32.55664062 14.32617188 C32.61948242 12.65844727 32.61948242 12.65844727 32.68359375 10.95703125 C32.72025146 9.93585205 32.75690918 8.91467285 32.79467773 7.86254883 C32.98840063 5.16171537 33.40451953 2.63833872 34 0 C37.3 0 40.6 0 44 0 C44 17.16 44 34.32 44 52 C33 51 33 51 30.125 48.4375 C29.37984557 47.31526339 28.67261576 46.16715816 28 45 C27.60828613 44.39075684 27.21657227 43.78151367 26.81298828 43.15380859 C25.96836075 41.83326913 25.13957055 40.50249368 24.32519531 39.16308594 C22.45530338 36.11090419 20.4824263 33.12914152 18.51513672 30.13916016 C16.32016697 26.77449829 14.1639752 23.38467916 12 20 C11.34 30.23 10.68 40.46 10 51 C5.05 51.495 5.05 51.495 0 52 C0 34.84 0 17.68 0 0 Z " fill="#EFF0ED" transform="translate(217,48)"/>
<path d="M0 0 C1.08764648 -0.0299707 1.08764648 -0.0299707 2.19726562 -0.06054688 C7.75311099 -0.0555551 10.99293264 1.27086999 15.5625 4.4375 C18.5965194 8.17167772 19.5625 9.57440416 19.5625 14.4375 C10.46511553 15.07343367 10.46511553 15.07343367 6.8125 12.5 C6.07 11.819375 5.3275 11.13875 4.5625 10.4375 C1.24207185 9.46904179 -0.86309933 9.32261987 -4.25 10 C-4.971875 10.474375 -5.69375 10.94875 -6.4375 11.4375 C-7.10773962 14.48433073 -7.10773962 14.48433073 -7.4375 17.4375 C-6.3753125 17.67984375 -5.313125 17.9221875 -4.21875 18.171875 C12.32885972 22.05058777 12.32885972 22.05058777 19.0625 27.4375 C21.51484503 32.34219006 21.47740557 37.08282009 20.5625 42.4375 C18.393587 47.11089367 15.0448759 49.54257026 10.3125 51.375 C2.42341869 53.50611089 -6.16387938 53.48286543 -13.4375 49.4375 C-16.2510935 47.07837079 -18.72537658 44.70609925 -20.4375 41.4375 C-20.1171875 38.6796875 -20.1171875 38.6796875 -19.4375 36.4375 C-14.9825 35.9425 -14.9825 35.9425 -10.4375 35.4375 C-10.025 36.22125 -9.6125 37.005 -9.1875 37.8125 C-7.2997668 40.6440998 -6.6478425 41.48307385 -3.4375 42.4375 C0.965661 42.86419808 4.75813174 42.9737455 8.5625 40.4375 C8.5625 38.4575 8.5625 36.4775 8.5625 34.4375 C7.89605469 34.19515625 7.22960937 33.9528125 6.54296875 33.703125 C4.60110984 32.99699449 2.66113382 32.28567326 0.72265625 31.5703125 C-1.31847827 30.83863263 -3.37309026 30.14307498 -5.44140625 29.4921875 C-11.4841885 27.53547706 -15.40170019 26.19505136 -18.4375 20.4375 C-19.31252542 15.09984496 -19.09876408 10.8617611 -16.8125 5.9375 C-11.84579465 0.7093891 -6.85699752 -0.06669052 0 0 Z " fill="#E1E3DD" transform="translate(332.4375,47.5625)"/>
<path d="M0 0 C4.21910727 3.12213938 7.46242443 5.96800182 8.9375 11.1875 C8.999375 11.88875 9.06125 12.59 9.125 13.3125 C5.43605347 14.54214884 3.00451221 14.77278111 -0.875 14.3125 C-2.27734375 12.97265625 -2.27734375 12.97265625 -3.625 11.3125 C-5.60032511 9.06563424 -6.54195105 8.38038885 -9.51953125 7.7734375 C-13.93686388 7.64334203 -17.00043417 7.84844466 -20.9375 9.9375 C-25.58448179 15.63380026 -25.54100485 22.2528486 -24.875 29.3125 C-23.99533015 32.86328413 -22.6365796 35.52465903 -20.0625 38.1875 C-16.12639028 40.211785 -13.07015582 40.57543428 -8.75 39.625 C-5.7933665 38.51994193 -5.7933665 38.51994193 -4.0625 36.1875 C-1.0420797 33.59856832 1.24189806 33.9524021 5.1015625 34.07421875 C7.125 34.3125 7.125 34.3125 9.125 35.3125 C8.19233533 40.14539872 5.72057214 43.04999138 2.125 46.3125 C-4.10353933 50.46082813 -10.5410294 51.314465 -17.875 50.3125 C-25.032173 48.56961493 -29.95005727 45.59499909 -33.875 39.3125 C-38.207968 31.98105224 -37.89767222 22.77467953 -36.37109375 14.62109375 C-34.68387789 8.92312476 -32.0629713 4.12094918 -26.7265625 1.09375 C-18.29000169 -2.83023177 -8.63159927 -4.54294698 0 0 Z " fill="#E1E4DE" transform="translate(394.875,49.6875)"/>
<path d="M0 0 C1.27746094 -0.01675781 2.55492187 -0.03351563 3.87109375 -0.05078125 C9.80247125 0.53294162 13.57986874 2.78372025 17.4375 7.25 C18.03304687 7.91902344 18.62859375 8.58804688 19.2421875 9.27734375 C20.5625 11.3125 20.5625 11.3125 20.5625 15.3125 C16.92467368 16.52510877 14.38514001 16.70794552 10.5625 16.3125 C8 13.9375 8 13.9375 5.5625 11.3125 C2.65143112 9.75992993 0.78069159 9.06700892 -2.4921875 9.7265625 C-6.70983803 11.13244601 -9.07966489 12.41084428 -11.4375 16.3125 C-13.17175199 22.9468868 -12.58792797 29.84940055 -10.4375 36.3125 C-8.70192444 39.15884392 -7.57838528 40.0039177 -4.38671875 40.8671875 C0.76652472 41.71595701 4.12412414 41.34358596 8.5625 38.3125 C9.2225 37.3225 9.8825 36.3325 10.5625 35.3125 C14.27890139 35.04221626 17.019701 35.131567 20.5625 36.3125 C20.21526879 40.24778707 18.91581612 42.93952346 16.265625 45.88671875 C10.82241145 50.44353744 3.97012041 51.98121312 -2.9921875 51.62109375 C-10.54148039 50.66838746 -15.24123483 48.55849971 -19.99609375 42.46875 C-24.8532016 35.20283256 -25.33999586 27.94326501 -24.4375 19.3125 C-22.74769305 11.66054398 -18.97770997 6.59956501 -12.4375 2.3125 C-8.26816573 0.18514344 -4.65088588 0.01405101 0 0 Z " fill="#DEE1DA" transform="translate(239.4375,116.6875)"/>
<path d="M0 0 C3.35884283 2.07247749 4.50332721 3.14739175 5.9375 6.8125 C7.06406919 13.29469653 7.06255039 19.81683247 7 26.375 C6.99548828 27.28830078 6.99097656 28.20160156 6.98632812 29.14257812 C6.9746874 31.36595738 6.95833851 33.58919121 6.9375 35.8125 C5.47957116 35.86649736 4.02107288 35.90529177 2.5625 35.9375 C1.75039063 35.96070313 0.93828125 35.98390625 0.1015625 36.0078125 C-2.0625 35.8125 -2.0625 35.8125 -4.0625 33.8125 C-5.0525 34.4725 -6.0425 35.1325 -7.0625 35.8125 C-10.4609375 36.18359375 -10.4609375 36.18359375 -14.4375 36.25 C-16.39816406 36.30994141 -16.39816406 36.30994141 -18.3984375 36.37109375 C-22.9331527 35.67976723 -24.31763979 34.42281054 -27.0625 30.8125 C-28.2361282 27.77976165 -28.44387207 25.0394944 -28.0625 21.8125 C-23.76383083 15.43382963 -16.70230174 14.07921704 -9.5625 12.625 C-8.0637433 12.34736886 -6.5641453 12.07405707 -5.0625 11.8125 C-5.3925 10.4925 -5.7225 9.1725 -6.0625 7.8125 C-7.76362992 7.00780151 -7.76362992 7.00780151 -10.0625 6.8125 C-13.06242729 8.10394978 -13.06242729 8.10394978 -16.0625 9.8125 C-19.52149978 11.62847489 -20.51264737 11.95774409 -24.375 10.9375 C-25.261875 10.56625 -26.14875 10.195 -27.0625 9.8125 C-25.49177153 4.6719341 -22.76716966 2.45524947 -18.26171875 -0.28125 C-12.85106908 -2.51086052 -5.44257487 -2.04678029 0 0 Z M-15.0625 22.8125 C-16.42328035 25.33622901 -16.42328035 25.33622901 -17.0625 27.8125 C-13.69361895 28.9024321 -12.25226004 28.88319492 -8.875 27.625 C-6.06894659 25.81665447 -5.12886703 24.90496438 -4.0625 21.8125 C-8.3891341 20.80630602 -11.18721677 20.44427136 -15.0625 22.8125 Z " fill="#E3E5E0" transform="translate(417.0625,131.1875)"/>
<path d="M0 0 C2.97094012 2.78479099 3.48135634 6.69554196 3.87744141 10.62060547 C3.9088623 11.72033691 3.9402832 12.82006836 3.97265625 13.953125 C4.03066406 15.75136719 4.03066406 15.75136719 4.08984375 17.5859375 C4.12078125 18.8234375 4.15171875 20.0609375 4.18359375 21.3359375 C4.24160156 23.22699219 4.24160156 23.22699219 4.30078125 25.15625 C4.39476364 28.25766887 4.48042786 31.35908636 4.55859375 34.4609375 C1.25859375 34.4609375 -2.04140625 34.4609375 -5.44140625 34.4609375 C-5.77140625 33.8009375 -6.10140625 33.1409375 -6.44140625 32.4609375 C-6.95832031 32.78320312 -7.47523438 33.10546875 -8.0078125 33.4375 C-11.21547567 34.7864691 -13.9059265 34.79887261 -17.37890625 34.8359375 C-19.18681641 34.87847656 -19.18681641 34.87847656 -21.03125 34.921875 C-25.01866928 34.38291111 -26.61472772 33.26158768 -29.44140625 30.4609375 C-31.17491728 26.99391545 -30.90173646 23.25189213 -30.44140625 19.4609375 C-27.63030433 14.81650824 -22.43965662 13.76650831 -17.44140625 12.4609375 C-14.12038164 11.71728665 -10.7921822 11.05554284 -7.44140625 10.4609375 C-7.77140625 9.1409375 -8.10140625 7.8209375 -8.44140625 6.4609375 C-13.92967382 6.18652412 -16.08929788 6.09156328 -20.44140625 9.4609375 C-26.5929214 9.88517992 -26.5929214 9.88517992 -29.44140625 8.4609375 C-28.87632102 4.98754697 -27.81497289 3.51086774 -25.12890625 1.2734375 C-24.23751953 0.50966797 -24.23751953 0.50966797 -23.328125 -0.26953125 C-16.64611602 -4.76570706 -6.8435533 -3.3292962 0 0 Z M-18.44140625 21.4609375 C-19.50895459 23.39494667 -19.50895459 23.39494667 -19.44140625 25.4609375 C-17.62722916 27.65067247 -17.62722916 27.65067247 -15.12890625 27.8984375 C-11.2849441 27.27267622 -9.85106443 25.42137469 -7.44140625 22.4609375 C-7.44140625 21.4709375 -7.44140625 20.4809375 -7.44140625 19.4609375 C-11.59607754 19.26769697 -14.77966875 19.36851607 -18.44140625 21.4609375 Z " fill="#E2E5DF" transform="translate(352.44140625,132.5390625)"/>
<path d="M0 0 C4.66743313 2.64959335 6.94520519 6.33561558 8.625 11.375 C8.625 14.015 8.625 16.655 8.625 19.375 C0.045 19.705 -8.535 20.035 -17.375 20.375 C-15.97762524 25.3150309 -15.97762524 25.3150309 -13.125 26.75 C-9.8306284 27.49872082 -7.63230919 27.22473283 -4.375 26.375 C-3.385 25.715 -2.395 25.055 -1.375 24.375 C0.66796875 24.1796875 0.66796875 24.1796875 2.8125 24.25 C4.070625 24.29125 5.32875 24.3325 6.625 24.375 C7.12 26.355 7.12 26.355 7.625 28.375 C6.50220538 29.35669476 5.37668527 30.33527298 4.25 31.3125 C3.62351562 31.85777344 2.99703125 32.40304688 2.3515625 32.96484375 C-2.70748321 37.09677928 -10.18119374 35.84944686 -16.375 35.375 C-20.816495 34.00346635 -24.02710597 31.41859527 -26.375 27.375 C-28.34019529 21.47941412 -28.44098109 14.01760967 -26.69140625 8.0390625 C-21.56027483 -1.71221629 -9.60044037 -4.34091206 0 0 Z M-16.375 9.375 C-16.375 10.365 -16.375 11.355 -16.375 12.375 C-14.41696493 12.42889087 -12.45851091 12.46774217 -10.5 12.5 C-9.40945313 12.52320313 -8.31890625 12.54640625 -7.1953125 12.5703125 C-4.2378949 12.67560534 -4.2378949 12.67560534 -2.375 10.375 C-5.71398231 7.30456885 -5.71398231 7.30456885 -9.9375 5.9375 C-12.85691954 6.46149838 -14.28322619 7.28322619 -16.375 9.375 Z " fill="#E5E7E2" transform="translate(540.375,131.625)"/>
<path d="M0 0 C4.08064643 2.36595056 5.84694826 5.02793167 7.625 9.4375 C8.12 14.3875 8.12 14.3875 8.625 19.4375 C0.045 19.7675 -8.535 20.0975 -17.375 20.4375 C-15.9429835 25.22738522 -15.9429835 25.22738522 -13.625 26.8125 C-10.56145915 27.66348357 -8.44082347 27.20395587 -5.375 26.4375 C-4.75625 26.086875 -4.1375 25.73625 -3.5 25.375 C-0.15349954 23.89860274 2.99315238 24.31643841 6.625 24.4375 C6.625 28.4375 6.625 28.4375 4.375 31.0625 C-1.22085488 35.89528376 -5.66255552 35.87106606 -12.94921875 35.75 C-17.66776968 35.31957346 -19.72898302 34.44942707 -23.375 31.4375 C-28.09746346 25.472283 -29.23489304 19.90628529 -28.375 12.4375 C-26.71656145 6.84276756 -23.8872542 3.52016144 -19.05859375 0.34765625 C-13.24196684 -2.79683115 -5.98006736 -2.62539543 0 0 Z M-15.8125 8.3125 C-17.57246348 10.26644726 -17.57246348 10.26644726 -17.375 12.4375 C-9.83452096 13.51609862 -9.83452096 13.51609862 -2.375 12.4375 C-2.65117533 10.49675139 -2.65117533 10.49675139 -3.375 8.4375 C-7.68415989 5.56472674 -11.57220386 5.05073374 -15.8125 8.3125 Z " fill="#E1E4DE" transform="translate(309.375,131.5625)"/>
<path d="M0 0 C4.42653516 -1.32100788 7.628714 -1.62103947 12 0 C16.83087144 5.46639941 19.91928534 12.4420067 23 19 C23.92232422 17.44539063 23.92232422 17.44539063 24.86328125 15.859375 C25.67956904 14.48951274 26.49598187 13.11972498 27.3125 11.75 C27.71662109 11.06808594 28.12074219 10.38617188 28.53710938 9.68359375 C29.67471987 7.7783274 30.83609021 5.88926028 32 4 C32.474375 3.1853125 32.94875 2.370625 33.4375 1.53125 C35 0 35 0 37.69921875 -0.390625 C38.68535156 -0.34421875 39.67148437 -0.2978125 40.6875 -0.25 C41.68136719 -0.21390625 42.67523438 -0.1778125 43.69921875 -0.140625 C44.45847656 -0.09421875 45.21773438 -0.0478125 46 0 C45.33633384 3.46190757 43.95918737 6.04264298 42.1640625 9.0625 C41.59429687 10.02414063 41.02453125 10.98578125 40.4375 11.9765625 C39.839375 12.97429688 39.24125 13.97203125 38.625 15 C38.03460938 15.99773438 37.44421875 16.99546875 36.8359375 18.0234375 C32.30847152 25.6303961 32.30847152 25.6303961 30.33813477 27.99121094 C28.65527227 30.51750041 28.57600248 32.18551452 28.48828125 35.203125 C28.45283203 36.1828125 28.41738281 37.1625 28.38085938 38.171875 C28.35830078 39.18765625 28.33574219 40.2034375 28.3125 41.25 C28.27833984 42.28125 28.24417969 43.3125 28.20898438 44.375 C28.12662785 46.91628699 28.06163407 49.45812601 28 52 C24.7 51.67 21.4 51.34 18 51 C18.01804687 49.59492187 18.03609375 48.18984375 18.0546875 46.7421875 C17.72476213 29.81583783 11.93720926 19.39163491 2 6 C0 3 0 3 0 0 Z " fill="#E2E4DE" transform="translate(266,48)"/>
<path d="M0 0 C3.25540217 2.32528726 4.11317705 4.18851771 5.625 7.875 C5.96557617 11.12646484 5.96557617 11.12646484 5.91796875 14.5859375 C5.9034668 16.45185547 5.9034668 16.45185547 5.88867188 18.35546875 C5.86353516 19.64066406 5.83839844 20.92585938 5.8125 22.25 C5.79219727 24.21259766 5.79219727 24.21259766 5.77148438 26.21484375 C5.7362237 29.43531844 5.68693633 32.65494606 5.625 35.875 C2.655 35.875 -0.315 35.875 -3.375 35.875 C-3.43034912 35.1636792 -3.48569824 34.4523584 -3.54272461 33.71948242 C-3.79542089 30.50016867 -4.05389202 27.28134403 -4.3125 24.0625 C-4.39951172 22.94294922 -4.48652344 21.82339844 -4.57617188 20.66992188 C-4.66318359 19.59677734 -4.75019531 18.52363281 -4.83984375 17.41796875 C-4.918396 16.42821045 -4.99694824 15.43845215 -5.07788086 14.41870117 C-5.30117008 11.75644162 -5.30117008 11.75644162 -6.375 8.875 C-10.40284093 7.72418831 -12.65598293 7.91218543 -16.375 9.875 C-17.64339099 12.41178197 -17.68666291 14.48939681 -17.91015625 17.3203125 C-18.04067383 18.93486328 -18.04067383 18.93486328 -18.17382812 20.58203125 C-18.3043457 22.27392578 -18.3043457 22.27392578 -18.4375 24 C-18.52837891 25.13566406 -18.61925781 26.27132812 -18.71289062 27.44140625 C-18.93729226 30.25233201 -19.15783166 33.06350766 -19.375 35.875 C-22.675 35.875 -25.975 35.875 -29.375 35.875 C-29.705 23.995 -30.035 12.115 -30.375 -0.125 C-26.745 -0.125 -23.115 -0.125 -19.375 -0.125 C-19.045 0.535 -18.715 1.195 -18.375 1.875 C-17.570625 1.38 -16.76625 0.885 -15.9375 0.375 C-10.36833063 -1.96991342 -5.71068839 -1.9035628 0 0 Z " fill="#EDEEEB" transform="translate(461.375,131.125)"/>
<path d="M0 0 C3.41648206 1.84020815 6.59859266 4.08966647 8.8828125 7.23046875 C8.6328125 9.98046875 8.6328125 9.98046875 7.8828125 12.23046875 C0.49031131 12.73165527 0.49031131 12.73165527 -2.6171875 10.16796875 C-4.86448707 8.02873486 -4.86448707 8.02873486 -7.19921875 8.1875 C-9.18521741 8.44835797 -11.15431846 8.83124115 -13.1171875 9.23046875 C-14.07249395 12.46322576 -14.28179128 15.42722514 -14.3046875 18.79296875 C-14.32595703 20.21802734 -14.32595703 20.21802734 -14.34765625 21.671875 C-14.30077638 24.47272118 -14.30077638 24.47272118 -12.1171875 27.23046875 C-8.45105193 28.37104426 -6.79077057 28.55977603 -3.3046875 26.85546875 C-1.24912667 25.41106154 -1.24912667 25.41106154 -0.1171875 24.23046875 C2.55340101 24.08931714 5.20713488 24.18799768 7.8828125 24.23046875 C8.3778125 26.70546875 8.3778125 26.70546875 8.8828125 29.23046875 C4.37201067 33.71307807 0.39998584 36.89044231 -6.1171875 37.23046875 C-12.28481836 36.79673943 -17.8438853 36.03793372 -22.1171875 31.23046875 C-25.98484035 24.67720854 -25.87032818 18.65799412 -25.1171875 11.23046875 C-23.9093895 6.77908744 -21.20077859 4.00320483 -17.5546875 1.29296875 C-12.10568016 -1.77718091 -5.88499591 -2.13901143 0 0 Z " fill="#E0E3DD" transform="translate(499.1171875,130.76953125)"/>
<path d="M0 0 C7.75 0.75 7.75 0.75 10 3 C10.680625 2.505 11.36125 2.01 12.0625 1.5 C15.59465009 -0.30365111 18.08636991 -0.23021353 22 0 C22 2.64 22 5.28 22 8 C21.06027344 8.25523437 21.06027344 8.25523437 20.1015625 8.515625 C18.87566406 8.87914062 18.87566406 8.87914062 17.625 9.25 C16.81289063 9.48203125 16.00078125 9.7140625 15.1640625 9.953125 C12.43105359 11.27523039 12.11423649 12.21561205 11 15 C10.54851294 17.50735365 10.54851294 17.50735365 10.3671875 20.203125 C10.28339844 21.1828125 10.19960938 22.1625 10.11328125 23.171875 C9.99533203 24.69554687 9.99533203 24.69554687 9.875 26.25 C9.78863281 27.28125 9.70226562 28.3125 9.61328125 29.375 C9.40151817 31.91615699 9.19736846 34.45769121 9 37 C7.52093108 37.02689216 6.04172517 37.04634621 4.5625 37.0625 C3.73878906 37.07410156 2.91507812 37.08570313 2.06640625 37.09765625 C0 37 0 37 -1 36 C-1.10012115 34.02156826 -1.13081196 32.03955624 -1.1328125 30.05859375 C-1.13410156 28.83462891 -1.13539063 27.61066406 -1.13671875 26.34960938 C-1.13285156 25.05861328 -1.12898438 23.76761719 -1.125 22.4375 C-1.12886719 21.17357422 -1.13273437 19.90964844 -1.13671875 18.60742188 C-1.13013736 12.31231896 -0.98842126 6.22077823 0 0 Z " fill="#DEE0D9" transform="translate(365,130)"/>
<path d="M0 0 C2.97 0 5.94 0 9 0 C9 16.5 9 33 9 50 C6.03 50 3.06 50 0 50 C0 33.5 0 17 0 0 Z " fill="#F0F2EF" transform="translate(266,117)"/>
<path d="M0 0 C0.33 0 0.66 0 1 0 C1 16.5 1 33 1 50 C3.64 50 6.28 50 9 50 C9 38.45 9 26.9 9 15 C12 18 12 18 12.15698242 21.36987305 C12.07274008 22.75157592 11.97114133 24.13229153 11.85546875 25.51171875 C11.80683182 26.23994339 11.75819489 26.96816803 11.70808411 27.71846008 C11.54941289 30.04279629 11.36875257 32.36482628 11.1875 34.6875 C11.0760215 36.26356981 10.96597797 37.83974183 10.85742188 39.41601562 C10.58824766 43.27872659 10.2993433 47.1395146 10 51 C5.05 51.495 5.05 51.495 0 52 C0 34.84 0 17.68 0 0 Z " fill="#7D8B6F" transform="translate(217,48)"/>
<path d="M0 0 C3.63 0 7.26 0 11 0 C11.33 0.66 11.66 1.32 12 2 C13.65 1.34 15.3 0.68 17 0 C15.1875 2.5 15.1875 2.5 13 5 C12.01 5 11.02 5 10 5 C10 3.68 10 2.36 10 1 C7.36 1 4.72 1 2 1 C2 12.22 2 23.44 2 35 C4.64 35 7.28 35 10 35 C9.97643433 34.09290283 9.97643433 34.09290283 9.95239258 33.16748047 C9.8896812 30.40341704 9.85089589 27.63950379 9.8125 24.875 C9.77479492 23.44800781 9.77479492 23.44800781 9.73632812 21.9921875 C9.67943856 16.53078926 9.95529251 12.7468668 13 8 C13.66 8.33 14.32 8.66 15 9 C14.01 10.485 14.01 10.485 13 12 C12.54119382 14.61027623 12.54119382 14.61027623 12.3671875 17.54296875 C12.28339844 18.61611328 12.19960938 19.68925781 12.11328125 20.79492188 C11.99533203 22.47424805 11.99533203 22.47424805 11.875 24.1875 C11.78863281 25.31865234 11.70226562 26.44980469 11.61328125 27.61523438 C11.40104585 30.40966714 11.19694519 33.20445481 11 36 C7.7 36 4.4 36 1 36 C0.67 24.12 0.34 12.24 0 0 Z " fill="#808D72" transform="translate(431,131)"/>
<path d="M0 0 C0.33 0 0.66 0 1 0 C1 11.88 1 23.76 1 36 C0.34 36 -0.32 36 -1 36 C-2.07951621 32.54502661 -2.05028566 29.48235882 -1.9140625 25.87890625 C-1.87023437 24.69619141 -1.82640625 23.51347656 -1.78125 22.29492188 C-1.7296875 21.06322266 -1.678125 19.83152344 -1.625 18.5625 C-1.58117187 17.33466797 -1.53734375 16.10683594 -1.4921875 14.84179688 C-1.10084364 4.85709305 -1.10084364 4.85709305 0 0 Z " fill="#7B866C" transform="translate(251,48)"/>
<path d="M0 0 C-0.23071677 3.9990906 -0.43643125 6.33396421 -3.0625 9.4375 C-7.08311221 11.57612352 -9.47882072 11.44470616 -14 11 C-16 9 -16 9 -16.4375 6.5625 C-16 4 -16 4 -13.8125 2.25 C-9.12353437 0.16601527 -5.10530834 -0.1187281 0 0 Z M-13 4 C-14.06754834 5.93400917 -14.06754834 5.93400917 -14 8 C-12.18582291 10.18973497 -12.18582291 10.18973497 -9.6875 10.4375 C-5.84353785 9.81173872 -4.40965818 7.96043719 -2 5 C-2 4.01 -2 3.02 -2 2 C-6.15467129 1.80675947 -9.3382625 1.90757857 -13 4 Z " fill="#576444" transform="translate(347,150)"/>
<path d="M0 0 C0.45761159 3.9354597 0.29742742 5.57244809 -2 8.875 C-6.08189235 11.76634041 -8.08253261 11.56429954 -13 11 C-15 9 -15 9 -15.4375 6.5625 C-15 4 -15 4 -12.875 2.25 C-8.51033281 0.35231861 -4.73615614 0 0 0 Z M-12 4 C-13.36078035 6.52372901 -13.36078035 6.52372901 -14 9 C-10.63111895 10.0899321 -9.18976004 10.07069492 -5.8125 8.8125 C-3.00644659 7.00415447 -2.06636703 6.09246438 -1 3 C-5.3266341 1.99380602 -8.12471677 1.63177136 -12 4 Z " fill="#4D5E36" transform="translate(414,150)"/>
<path d="M0 0 C5.31335616 0.36643836 5.31335616 0.36643836 7.625 2.25 C8.285 4.23 8.945 6.21 9.625 8.25 C3.685 8.25 -2.255 8.25 -8.375 8.25 C-8.045 6.93 -7.715 5.61 -7.375 4.25 C-7.045 5.24 -6.715 6.23 -6.375 7.25 C-0.435 6.755 -0.435 6.755 5.625 6.25 C5.625 5.59 5.625 4.93 5.625 4.25 C2.34305371 2.0620358 1.40024063 2.06123797 -2.375 2.25 C-3.365 2.25 -4.355 2.25 -5.375 2.25 C-3.375 0.25 -3.375 0.25 0 0 Z " fill="#4C5A39" transform="translate(530.375,136.75)"/>
<path d="M0 0 C0.33 0 0.66 0 1 0 C1 1.65 1 3.3 1 5 C-7.58 5.33 -16.16 5.66 -25 6 C-25.33 7.32 -25.66 8.64 -26 10 C-26.33 8.02 -26.66 6.04 -27 4 C-18.09 4 -9.18 4 0 4 C0 2.68 0 1.36 0 0 Z " fill="#A4AB99" transform="translate(317,146)"/>
<path d="M0 0 C0.66 0.33 1.32 0.66 2 1 C-3.61 6.61 -9.22 12.22 -15 18 C-15 12.50089132 -9.68936771 8.76735434 -6 5 C-4.05347234 3.22256464 -2.09090037 1.6083849 0 0 Z " fill="#AFBFA7" transform="translate(41,30)"/>
<path d="M0 0 C0.33 0.99 0.66 1.98 1 3 C-0.90401138 4.90401138 -2.33425686 5.93520439 -5.046875 6.19921875 C-7.03233273 6.1886578 -9.0169914 6.09915043 -11 6 C-11.33 5.34 -11.66 4.68 -12 4 C-10.7625 3.896875 -9.525 3.79375 -8.25 3.6875 C-4.7207134 3.26198318 -2.62839034 2.51887408 0 0 Z " fill="#485434" transform="translate(412,155)"/>
<path d="M0 0 C2.97 0 5.94 0 9 0 C9.33 0.66 9.66 1.32 10 2 C11.65 1.34 13.3 0.68 15 0 C13.1875 2.5 13.1875 2.5 11 5 C10.01 5 9.02 5 8 5 C8 3.68 8 2.36 8 1 C5.36 1 2.72 1 0 1 C0 0.67 0 0.34 0 0 Z " fill="#B2BAA3" transform="translate(433,131)"/>
<path d="M0 0 C-1.15173355 2.46800047 -2.04783565 4.04783565 -4 6 C-4.40047444 8.32275177 -4.7397104 10.65739357 -5 13 C-5.33 13 -5.66 13 -6 13 C-6.62645012 4.85614849 -6.62645012 4.85614849 -4.125 1.4375 C-2 0 -2 0 0 0 Z " fill="#BABDB1" transform="translate(328,148)"/>
<path d="M0 0 C0.66 0.33 1.32 0.66 2 1 C0.5459375 2.3303125 0.5459375 2.3303125 -0.9375 3.6875 C-3.60122242 6.32615209 -4.7731363 8.14331715 -5 12 C-5.33 12 -5.66 12 -6 12 C-6.3125 9.3125 -6.3125 9.3125 -6 6 C-3.5625 3.1875 -3.5625 3.1875 -1 1 C-0.67 0.67 -0.34 0.34 0 0 Z " fill="#8F9384" transform="translate(395,147)"/>
<path d="M0 0 C0.66 0 1.32 0 2 0 C2 1.32 2 2.64 2 4 C-4.625 4.25 -4.625 4.25 -8 2 C-5.36 2 -2.72 2 0 2 C0 1.34 0 0.68 0 0 Z " fill="#536042" transform="translate(154,78)"/>
<path d="M0 0 C0.66 0.33 1.32 0.66 2 1 C-0.64 3.64 -3.28 6.28 -6 9 C-6 5.06368636 -4.57142871 3.87394974 -2 1 C-1.34 0.67 -0.68 0.34 0 0 Z " fill="#A2AA9C" transform="translate(368,51)"/>
<path d="M0 0 C0.66 0.33 1.32 0.66 2 1 C-0.64 3.64 -3.28 6.28 -6 9 C-6 6 -6 6 -3.5625 3.375 C-2.716875 2.59125 -1.87125 1.8075 -1 1 C-0.67 0.67 -0.34 0.34 0 0 Z " fill="#C0C2B9" transform="translate(290,132)"/>
<path d="M0 0 C-1.49097658 3.7952131 -3.75700849 5.61042731 -7 8 C-4.18918919 0 -4.18918919 0 0 0 Z " fill="#B4B9AA" transform="translate(482,133)"/>
<path d="M0 0 C0.66 0.33 1.32 0.66 2 1 C-3.875 6 -3.875 6 -5 6 C-5 4.35 -5 2.7 -5 1 C-4.01 1.495 -4.01 1.495 -3 2 C-2.01 1.34 -1.02 0.68 0 0 Z " fill="#9CA88F" transform="translate(378,131)"/>
</svg>
